<svg width="18" height="15" viewBox="0 0 18 15" fill="none" xmlns="http://www.w3.org/2000/svg">
<path d="M14.3182 11.25H7.57275C6.6 11.25 5.7375 10.6117 5.47425 9.6975L3.19425 1.97175C3.11325 1.692 2.844 1.5 2.5365 1.5H0.75C0.33525 1.5 0 1.164 0 0.75C0 0.336 0.33525 0 0.75 0H2.5365C3.50925 0 4.371 0.63825 4.63425 1.5525L5.061 3H16.5322C17.0002 3 17.4443 3.22275 17.7195 3.59625C17.9925 3.96675 18.0712 4.43025 17.9355 4.86825L16.3883 9.77925C16.0852 10.6657 15.255 11.25 14.3182 11.25ZM16.533 4.5H16.5405H16.533Z" fill="white"/>
<path d="M8.25 15C7.42275 15 6.75 14.3272 6.75 13.5C6.75 12.6727 7.42275 12 8.25 12C9.07725 12 9.75 12.6727 9.75 13.5C9.75 14.3272 9.07725 15 8.25 15ZM8.25 13.4993V13.5V13.4993Z" fill="white"/>
<path d="M13.5 15C12.6727 15 12 14.3272 12 13.5C12 12.6727 12.6727 12 13.5 12C14.3272 12 15 12.6727 15 13.5C15 14.3272 14.3272 15 13.5 15ZM13.5 13.4993V13.5V13.4993Z" fill="white"/>
</svg>
