<svg width="45" height="45" viewBox="0 0 45 45" fill="none" xmlns="http://www.w3.org/2000/svg">
<circle cx="22.4312" cy="22.4312" r="22.4312" fill="#82C453"/>
<path d="M12.7215 31.3475L18.3717 34.6081C18.5045 34.686 18.6556 34.7269 18.8095 34.7265C18.9633 34.7265 19.1144 34.6856 19.2472 34.6081L22.4586 32.7488C23.7029 33.2044 25.0655 33.2217 26.321 32.7977C27.5765 32.3738 28.6497 31.5339 29.3632 30.4172C30.0766 29.3004 30.3876 27.9735 30.2446 26.656C30.1017 25.3385 29.5134 24.1092 28.577 23.1715L28.2711 22.8655L30.541 21.5572C30.674 21.4806 30.7845 21.3702 30.8614 21.2373C30.9382 21.1043 30.9787 20.9535 30.9787 20.7999V14.2753C30.9785 14.1216 30.938 13.9706 30.8611 13.8374C30.7843 13.7042 30.6739 13.5935 30.541 13.5164L24.8958 10.254C24.7625 10.1777 24.6116 10.1375 24.458 10.1375C24.3045 10.1375 24.1535 10.1777 24.0203 10.254L18.3717 13.5164C18.2385 13.5933 18.128 13.7039 18.0511 13.8371C17.9743 13.9704 17.9339 14.1215 17.934 14.2753V20.2979L12.7215 23.3067C12.5886 23.384 12.4784 23.4951 12.4021 23.6286C12.3259 23.7622 12.2862 23.9135 12.2871 24.0673V30.592C12.2876 30.7448 12.3279 30.8949 12.4041 31.0274C12.4803 31.1599 12.5897 31.2702 12.7215 31.3475V31.3475ZM27.3432 24.4172C27.9125 24.9857 28.3004 25.7104 28.4578 26.4995C28.6152 27.2885 28.5351 28.1066 28.2275 28.8501C27.9199 29.5935 27.3986 30.2291 26.7298 30.6762C26.0609 31.1234 25.2744 31.3621 24.4699 31.3621C23.6653 31.3621 22.8789 31.1234 22.21 30.6762C21.5411 30.2291 21.0199 29.5935 20.7123 28.8501C20.4047 28.1066 20.3245 27.2885 20.4819 26.4995C20.6393 25.7104 21.0272 24.9857 21.5966 24.4172L24.4699 21.5437L27.3432 24.4172ZM19.685 14.7824L24.4564 12.0238L29.2311 14.7807V20.2928L26.9916 21.5859L25.0868 19.6725C24.9226 19.5086 24.7002 19.4165 24.4682 19.4165C24.2362 19.4165 24.0137 19.5086 23.8496 19.6725L21.9346 21.5876L19.685 20.2878V14.7824ZM14.0348 24.5744L18.8112 21.8175L20.6518 22.879L20.3543 23.1782C19.2636 24.2696 18.6508 25.7494 18.6508 27.2924C18.6508 28.8355 19.2636 30.3153 20.3543 31.4067C20.4726 31.5233 20.5943 31.6349 20.7211 31.7447L18.8095 32.8485L14.0348 30.0916V24.5744Z" fill="white"/>
<path d="M25.9434 27.0863C25.9425 27.5095 25.7739 27.9151 25.4745 28.2142C25.1751 28.5133 24.7694 28.6815 24.3462 28.6819C24.114 28.6819 23.8913 28.7742 23.7271 28.9384C23.5629 29.1026 23.4707 29.3253 23.4707 29.5575C23.4707 29.7897 23.5629 30.0125 23.7271 30.1767C23.8913 30.3409 24.114 30.4331 24.3462 30.4331C25.2337 30.4322 26.0845 30.0794 26.7122 29.452C27.3399 28.8246 27.6931 27.9738 27.6944 27.0863C27.6944 26.8541 27.6022 26.6314 27.438 26.4671C27.2738 26.3029 27.0511 26.2107 26.8189 26.2107C26.5867 26.2107 26.364 26.3029 26.1999 26.4671C26.0357 26.6314 25.9434 26.8541 25.9434 27.0863V27.0863Z" fill="white"/>
<path d="M23.6587 17.6155C23.6823 17.6683 23.71 17.7191 23.7415 17.7676C23.7728 17.8153 23.809 17.8595 23.8497 17.8995C24.0144 18.062 24.2369 18.1526 24.4683 18.1513C24.5251 18.1515 24.5817 18.1459 24.6373 18.1344C24.6951 18.1238 24.7518 18.1074 24.8063 18.0854C24.8587 18.0617 24.9096 18.0346 24.9584 18.0043C25.053 17.939 25.1349 17.8571 25.2001 17.7625C25.2306 17.714 25.2571 17.6631 25.2796 17.6104C25.3029 17.5562 25.3199 17.4995 25.3303 17.4414C25.3417 17.3858 25.3474 17.3291 25.3472 17.2724C25.3473 17.2156 25.3416 17.1589 25.3303 17.1033C25.3199 17.0452 25.3029 16.9885 25.2796 16.9343C25.2571 16.8816 25.2306 16.8307 25.2001 16.7822C25.1673 16.7352 25.1305 16.6911 25.0903 16.6503C25.0503 16.6097 25.0061 16.5734 24.9584 16.5421C24.91 16.5106 24.8591 16.4829 24.8063 16.4593C24.6171 16.383 24.4071 16.3751 24.2126 16.4371C24.0182 16.4992 23.8516 16.6272 23.7415 16.7991C23.71 16.8475 23.6823 16.8984 23.6587 16.9512C23.6367 17.0057 23.6203 17.0624 23.6097 17.1202C23.5991 17.176 23.5935 17.2325 23.5928 17.2893C23.5934 17.346 23.5991 17.4026 23.6097 17.4583C23.621 17.5121 23.6375 17.5647 23.6587 17.6155V17.6155Z" fill="white"/>
</svg>
