<svg width="72" height="72" viewBox="0 0 72 72" fill="none" xmlns="http://www.w3.org/2000/svg">
<g clip-path="url(#clip0_234:39283)">
<path d="M36.0069 72.0006C28.888 72.0006 21.929 69.8894 16.0099 65.934C10.0908 61.9786 5.47734 56.3567 2.75306 49.7791C0.0287785 43.2016 -0.684017 35.9638 0.704809 28.9811C2.09364 21.9984 5.52171 15.5843 10.5555 10.5501C15.5893 5.51584 22.0028 2.08747 28.9849 0.698521C35.967 -0.690426 43.2041 0.022434 49.7811 2.74695C56.3581 5.47147 61.9796 10.0853 65.9346 16.0049C69.8897 21.9246 72.0007 28.8842 72.0007 36.0037C71.9874 45.5466 68.191 54.6949 61.4437 61.4427C54.6965 68.1906 45.549 71.9873 36.0069 72.0006ZM36.0069 6.35169C30.1433 6.35107 24.4112 8.08942 19.5355 11.3469C14.6597 14.6044 10.8594 19.2347 8.61508 24.6523C6.37074 30.0698 5.7832 36.0313 6.92676 41.7829C8.07031 47.5344 10.8936 52.8176 15.0396 56.9644C19.1856 61.1112 24.468 63.9353 30.219 65.0796C35.9699 66.2238 41.9309 65.6369 47.3482 63.3929C52.7656 61.1489 57.3959 57.3488 60.6536 52.473C63.9113 47.5972 65.6501 41.8647 65.6501 36.0006C65.6443 28.1384 62.5199 20.5996 56.9624 15.0387C51.4049 9.47784 43.8685 6.34912 36.0069 6.33917V6.35169Z" fill="white"/>
<path d="M54.8419 33.4456L52.8606 30.882L52.5477 30.4719C52.0281 29.8052 51.6275 28.9319 50.9483 28.5375C50.2691 28.1431 49.3521 28.2714 48.507 28.1619C48.6603 27.5202 48.82 26.8159 49.014 26.121C49.0453 26.0114 49.2143 25.9363 49.327 25.8643C49.3771 25.8361 49.4553 25.8643 49.5211 25.8643C51.9217 25.7454 51.9217 25.7454 53.4021 27.6235C54.7667 29.3607 56.1408 31.0917 57.471 32.8477C57.6891 33.1574 57.812 33.524 57.8246 33.9026C57.8653 35.1359 57.8246 36.3723 57.8246 37.6056C57.8246 38.7919 57.4209 39.1706 56.2096 39.1706H37.4303H13.3865C12.1564 39.1706 11.7464 38.7606 11.7464 37.5398C11.7464 36.3691 11.712 35.1985 11.7621 34.0309C11.7789 33.6284 11.9115 33.2393 12.1439 32.9103C13.7871 30.7599 15.4741 28.6408 17.1361 26.506C17.2931 26.2865 17.5025 26.1098 17.7452 25.9917C17.9878 25.8736 18.2561 25.818 18.5257 25.8299C22.7261 25.8466 26.9274 25.8466 31.1298 25.8299C31.5649 25.8299 31.7902 25.9081 31.8528 26.409C31.9683 27.0227 32.1241 27.6281 32.3192 28.2213C32.0719 28.2213 31.8466 28.2526 31.6212 28.2526C27.5899 28.2526 23.5617 28.2526 19.5336 28.2526C19.3434 28.2373 19.1525 28.2727 18.9804 28.3552C18.8083 28.4377 18.6612 28.5643 18.5539 28.7221C17.4991 30.1213 16.4099 31.4955 15.3364 32.8821C15.2206 33.0293 15.1236 33.1952 14.9577 33.4362L54.8419 33.4456Z" fill="white"/>
<path d="M40.4572 11.519C41.1551 14.4614 43.1583 16.5555 44.767 18.8937C45.8531 20.4588 46.7295 22.1272 46.958 24.0866C47.3555 27.4109 44.9141 30.7351 41.6027 31.2672C36.4478 32.0967 32.526 27.4578 34.2037 22.4026C34.6231 21.1318 35.3586 19.9454 36.0816 18.7998C36.9392 17.4288 38.0002 16.1799 38.8547 14.8026C39.4744 13.8103 39.8938 12.696 40.4572 11.519ZM40.2224 29.2858L40.7827 28.9728C40.6387 28.76 40.5479 28.472 40.3508 28.3468C38.7533 27.3367 37.4221 25.9572 36.4697 24.3245C36.3508 24.118 36.0503 24.0115 35.8437 23.8707C35.7279 24.1273 35.49 24.3965 35.5307 24.6376C35.7936 27.2074 37.4713 28.9572 40.2224 29.2858Z" fill="white"/>
<path d="M40.3692 43.2432C40.4506 43.3558 40.5226 43.4122 40.5382 43.4811C41.0233 45.4312 42.2033 46.9712 43.4365 48.4893C44.2283 49.4628 45.039 50.4269 45.7432 51.463C47.4021 53.9139 48.003 56.5464 46.7792 59.376C46.1672 60.7643 45.12 61.9155 43.7959 62.6559C42.4718 63.3962 40.9426 63.6854 39.4396 63.4797C37.9545 63.262 36.5762 62.5806 35.5015 61.5328C34.4267 60.4849 33.7106 59.1242 33.4553 57.645C33.0985 55.4539 33.6587 53.4757 34.8731 51.6977C35.6368 50.5709 36.5006 49.5066 37.3614 48.458C38.5852 46.9555 39.715 45.4092 40.2252 43.4998C40.2612 43.4081 40.3097 43.3217 40.3692 43.2432ZM40.4631 49.3658C39.9373 49.9198 39.5241 50.3048 39.1704 50.7305C38.0249 52.0577 36.8481 53.3724 36.3535 55.1127C36.0791 55.9986 36.1002 56.9498 36.4135 57.8226C36.7269 58.6955 37.3155 59.4429 38.0906 59.952C38.8213 60.4072 39.6763 60.6218 40.5353 60.5657C41.3944 60.5095 42.2141 60.1854 42.8794 59.639C44.4756 58.3399 44.9357 56.0518 43.7651 54.0454C42.8199 52.4365 41.6118 50.9778 40.4631 49.3658Z" fill="white"/>
<path d="M26.3129 40.251C26.7668 42.0539 27.8779 43.4625 28.942 44.9055C30.0062 46.3485 31.0109 47.8729 31.2801 49.751C31.4392 51.074 31.0774 52.4069 30.2713 53.4678C29.4652 54.5287 28.2779 55.2344 26.9608 55.4354C25.6403 55.6288 24.2968 55.293 23.2225 54.5011C22.1482 53.7092 21.4299 52.5252 21.2237 51.2065C21.0594 49.8681 21.3154 48.5117 21.9561 47.3251C22.1756 46.8787 22.4288 46.4497 22.7135 46.0418C23.3677 45.1027 24.097 44.2106 24.7042 43.2246C25.3114 42.2386 25.7621 41.2902 26.3129 40.251ZM26.2378 45.3156C25.6588 46.12 25.1173 46.7711 24.6948 47.5067C24.2738 48.1816 23.9484 48.9116 23.7276 49.6759C23.5848 50.1939 23.6124 50.744 23.8063 51.2451C24.0002 51.7462 24.3501 52.1717 24.8043 52.4586C25.2294 52.7638 25.7374 52.9321 26.2606 52.9411C26.7838 52.9501 27.2973 52.7993 27.7326 52.5088C28.1679 52.2184 28.5043 51.8021 28.6969 51.3155C28.8895 50.8289 28.9292 50.2952 28.8106 49.7854C28.4788 48.0388 27.2926 46.8087 26.2378 45.3156Z" fill="white"/>
<path d="M26.3098 11.5781C26.7668 13.162 27.7934 14.3421 28.6885 15.6035C29.4335 16.649 30.0532 17.7352 30.2159 19.0467C30.4945 21.266 28.8576 23.3851 26.6572 23.5792C24.2942 23.7826 22.2754 22.0829 22.2754 19.7635C22.3151 18.865 22.5188 17.9813 22.8763 17.1561C23.1612 16.4487 23.6964 15.8414 24.1283 15.1997C24.5195 14.6269 24.964 14.0948 25.3208 13.5032C25.6776 12.9116 25.9436 12.2855 26.3098 11.5781Z" fill="white"/>
</g>
<defs>
<clipPath id="clip0_234:39283">
<rect width="72" height="72" fill="white"/>
</clipPath>
</defs>
</svg>
