<svg width="45" height="45" viewBox="0 0 45 45" fill="none" xmlns="http://www.w3.org/2000/svg">
<circle cx="22.5318" cy="22.4312" r="22.4312" fill="#105C85"/>
<path d="M25.9253 28.5586C23.3887 27.2237 20.2187 28.1906 18.859 30.714C18.6936 31.0212 18.6578 31.3819 18.7596 31.7157C18.8606 32.0476 19.0895 32.3254 19.3955 32.4883C19.3975 32.4894 19.3992 32.4903 19.4011 32.4913C21.9377 33.8262 25.1077 32.8593 26.4674 30.3359C26.6329 30.0287 26.6687 29.668 26.5669 29.3342C26.4652 29.0002 26.2221 28.738 25.9253 28.5586Z" fill="white"/>
<path d="M29.3052 22.211C26.7686 20.8761 23.5986 21.8429 22.2389 24.3663C22.0735 24.6736 22.0376 25.0342 22.1395 25.368C22.2405 25.7 22.4694 25.9777 22.7754 26.1407C22.7774 26.1418 22.7791 26.1427 22.781 26.1437C25.3176 27.4786 28.4876 26.5117 29.8473 23.9883C30.0127 23.6811 30.0486 23.3204 29.9468 22.9866C29.8451 22.6525 29.602 22.3904 29.3052 22.211Z" fill="white"/>
<path d="M15.5494 23.0331C15.2186 22.8699 14.8817 22.8315 14.5477 22.9336C14.2139 23.0354 13.9346 23.2665 13.7721 23.5752C12.4371 26.1118 13.404 29.2817 15.9274 30.6415C15.9294 30.6425 15.9311 30.6434 15.9331 30.6445C16.239 30.8074 16.5973 30.8424 16.9291 30.7409C17.2629 30.6391 17.5422 30.4081 17.7048 30.0994C19.0397 27.5627 18.0728 24.3928 15.5494 23.0331Z" fill="white"/>
<path d="M18.9293 16.6854C18.5985 16.5222 18.2615 16.4839 17.9276 16.586C17.5938 16.6878 17.3145 16.9188 17.1519 17.2275C15.817 19.7641 16.7839 22.9341 19.3073 24.2938C19.3093 24.2949 19.311 24.2958 19.3129 24.2968C19.6189 24.4598 19.9772 24.4947 20.309 24.3933C20.6428 24.2914 20.9221 24.0604 21.0847 23.7517C22.4196 21.2151 21.4527 18.0451 18.9293 16.6854Z" fill="white"/>
<path d="M27.8084 18.0806C28.5018 16.7785 28.6126 15.2693 28.1201 13.8313C27.8975 13.1803 27.2083 12.8133 26.5439 12.9919C25.0759 13.3859 23.8854 14.3201 23.192 15.6222C22.4986 16.9242 22.3878 18.4335 22.8802 19.8715C22.9915 20.197 23.2195 20.4515 23.5027 20.6023C23.7859 20.7531 24.1243 20.8002 24.4565 20.7109C25.9245 20.3169 27.115 19.3827 27.8084 18.0806Z" fill="white"/>
</svg>
