<svg width="46" height="45" viewBox="0 0 46 45" fill="none" xmlns="http://www.w3.org/2000/svg">
<circle cx="23.2559" cy="22.4312" r="22.4312" fill="#12ADC2"/>
<path d="M14.7405 24.6115H24.9035C25.1318 24.6115 25.3506 24.5208 25.512 24.3594C25.6734 24.1981 25.7641 23.9792 25.7641 23.7509C25.7641 23.5227 25.6734 23.3038 25.512 23.1424C25.3506 22.9811 25.1318 22.8904 24.9035 22.8904H16.6151L25.0326 13.0687L23.5209 18.3525C23.4582 18.5721 23.4852 18.8077 23.5962 19.0075C23.7071 19.2072 23.8929 19.3546 24.1125 19.4174C24.3322 19.4802 24.5678 19.4531 24.7675 19.3421C24.9672 19.2312 25.1147 19.0454 25.1775 18.8258L27.1467 11.9328C27.2311 11.6351 27.2114 11.3175 27.0908 11.0326C26.9701 10.7476 26.7558 10.5124 26.4833 10.3659C26.2108 10.2193 25.8964 10.1702 25.5921 10.2267C25.2879 10.2832 25.0121 10.4418 24.8103 10.6764L14.0865 23.1887C13.9787 23.3137 13.909 23.467 13.8859 23.6304C13.8628 23.7938 13.8872 23.9604 13.9561 24.1104C14.025 24.2603 14.1356 24.3873 14.2747 24.4761C14.4138 24.565 14.5755 24.612 14.7405 24.6115V24.6115Z" fill="white"/>
<path d="M20.6567 21.0029C20.6567 21.2311 20.7473 21.45 20.9087 21.6114C21.0701 21.7728 21.289 21.8635 21.5172 21.8635H29.81L21.391 31.6851L22.9012 26.4C22.964 26.1803 22.9369 25.9447 22.826 25.745C22.715 25.5453 22.5293 25.3978 22.3096 25.335C22.09 25.2723 21.8543 25.2993 21.6546 25.4103C21.4549 25.5212 21.3075 25.707 21.2447 25.9267L19.2755 32.8196C19.1894 33.1177 19.208 33.4362 19.3282 33.7222C19.4485 34.0082 19.6631 34.2443 19.9364 34.3912C20.2096 34.5381 20.5249 34.587 20.8298 34.5296C21.1347 34.4723 21.4107 34.3122 21.6119 34.076L32.3342 21.5637C32.4421 21.4388 32.5117 21.2854 32.5348 21.122C32.5579 20.9586 32.5336 20.792 32.4646 20.6421C32.3957 20.4921 32.2851 20.3651 32.146 20.2763C32.007 20.1874 31.8453 20.1404 31.6802 20.1409H21.5186C21.4054 20.1407 21.2932 20.1629 21.1886 20.2062C21.0839 20.2494 20.9888 20.3129 20.9087 20.393C20.8286 20.4731 20.7651 20.5682 20.7219 20.6728C20.6786 20.7775 20.6565 20.8897 20.6567 21.0029V21.0029Z" fill="white"/>
</svg>
