<svg width="71" height="71" viewBox="0 0 71 71" fill="none" xmlns="http://www.w3.org/2000/svg">
<g clip-path="url(#clip0_234:39278)">
<path d="M35.4938 71.0031C28.4738 71.0031 21.6115 68.9213 15.7745 65.0208C9.9376 61.1204 5.38827 55.5765 2.70182 49.0903C0.0153783 42.6041 -0.687517 35.4668 0.68202 28.5811C2.05156 21.6954 5.43201 15.3704 10.3959 10.4061C15.3598 5.44177 21.6842 2.06101 28.5693 0.691357C35.4545 -0.6783 42.5911 0.0246573 49.0767 2.71133C55.5624 5.39801 61.1058 9.94774 65.0059 15.7852C68.906 21.6226 70.9877 28.4856 70.9877 35.5062C70.9754 44.9168 67.232 53.9385 60.5782 60.5928C53.9245 67.2471 44.9036 70.9909 35.4938 71.0031ZM35.4938 6.26601C29.7119 6.26723 24.0602 7.98307 19.2533 11.1966C14.4465 14.4101 10.7004 18.9769 8.48873 24.3196C6.27707 29.6622 5.69919 35.5408 6.82816 41.2119C7.95713 46.883 10.7422 52.092 14.8313 56.1802C18.9204 60.2683 24.1298 63.052 29.8008 64.1793C35.4718 65.3065 41.3497 64.7268 46.6912 62.5132C52.0327 60.2997 56.5979 56.5518 59.8096 51.7435C63.0213 46.9352 64.7352 41.2825 64.7346 35.5C64.7256 27.7478 61.6417 20.3159 56.1597 14.8351C50.6777 9.35435 43.2454 6.27255 35.4938 6.26601Z" fill="white"/>
<path d="M17.7683 51.7824L28.0862 57.7366C28.3286 57.8788 28.6046 57.9534 28.8856 57.9526C29.1665 57.9527 29.4424 57.8781 29.685 57.7366L35.5492 54.3412C37.8215 55.1733 40.3097 55.2048 42.6024 54.4306C44.8951 53.6564 46.8549 52.1228 48.1577 50.0834C49.4605 48.0441 50.0284 45.6211 49.7673 43.2152C49.5062 40.8092 48.4319 38.5645 46.722 36.852L46.1634 36.2934L50.3085 33.9043C50.5514 33.7643 50.7533 33.5628 50.8936 33.3201C51.0339 33.0773 51.1078 32.8018 51.1078 32.5214V20.6068C51.1074 20.3261 51.0334 20.0503 50.8931 19.8071C50.7529 19.5639 50.5513 19.3618 50.3085 19.2209L39.9998 13.2636C39.7565 13.1241 39.4809 13.0508 39.2004 13.0508C38.92 13.0508 38.6444 13.1241 38.401 13.2636L28.0862 19.2209C27.843 19.3613 27.6411 19.5634 27.5007 19.8067C27.3604 20.05 27.2866 20.3259 27.2869 20.6068V31.6047L17.7683 37.099C17.5256 37.2402 17.3244 37.443 17.1851 37.6869C17.0459 37.9308 16.9734 38.2071 16.9751 38.488V50.4026C16.976 50.6817 17.0496 50.9558 17.1887 51.1977C17.3278 51.4397 17.5276 51.6412 17.7683 51.7824ZM44.469 39.1269C45.5086 40.1651 46.217 41.4884 46.5044 42.9293C46.7919 44.3702 46.6455 45.864 46.0838 47.2217C45.5221 48.5794 44.5703 49.74 43.3488 50.5565C42.1274 51.373 40.6912 51.8089 39.222 51.8089C37.7528 51.8089 36.3167 51.373 35.0952 50.5565C33.8738 49.74 32.922 48.5794 32.3603 47.2217C31.7986 45.864 31.6522 44.3702 31.9396 42.9293C32.2271 41.4884 32.9355 40.1651 33.9751 39.1269L39.222 33.8796L44.469 39.1269ZM30.4844 21.5328L39.1973 16.4953L47.9165 21.5297V31.5954L43.827 33.9567L40.3486 30.4626C40.0488 30.1633 39.6425 29.9952 39.219 29.9952C38.7954 29.9952 38.3891 30.1633 38.0893 30.4626L34.5924 33.9598L30.4844 31.5862V21.5328ZM20.1665 39.414L28.8887 34.3796L32.2498 36.318L31.7066 36.8644C29.7148 38.8573 28.5959 41.5597 28.5959 44.3774C28.5959 47.1951 29.7148 49.8975 31.7066 51.8904C31.9227 52.1034 32.1449 52.3071 32.3764 52.5077L28.8856 54.5233L20.1665 49.4889V39.414Z" fill="white"/>
<path d="M41.9134 44.0008C41.9118 44.7736 41.6038 45.5143 41.0571 46.0604C40.5104 46.6066 39.7695 46.9138 38.9967 46.9146C38.5727 46.9146 38.166 47.0831 37.8662 47.3829C37.5664 47.6828 37.3979 48.0894 37.3979 48.5135C37.3979 48.9376 37.5664 49.3442 37.8662 49.6441C38.166 49.9439 38.5727 50.1124 38.9967 50.1124C40.6173 50.1108 42.171 49.4664 43.3172 48.3207C44.4634 47.175 45.1085 45.6215 45.1109 44.0008C45.1109 43.5767 44.9425 43.17 44.6426 42.8702C44.3428 42.5703 43.9362 42.4019 43.5121 42.4019C43.0881 42.4019 42.6815 42.5703 42.3816 42.8702C42.0818 43.17 41.9134 43.5767 41.9134 44.0008Z" fill="white"/>
<path d="M37.741 26.7059C37.7841 26.8023 37.8346 26.8952 37.8922 26.9837C37.9493 27.0708 38.0155 27.1515 38.0897 27.2245C38.3905 27.5213 38.7968 27.6867 39.2194 27.6844C39.323 27.6848 39.4265 27.6745 39.528 27.6535C39.6336 27.6341 39.737 27.6042 39.8366 27.564C39.9324 27.5208 40.0252 27.4713 40.1144 27.4159C40.2871 27.2967 40.4366 27.1471 40.5558 26.9745C40.6114 26.8858 40.6599 26.793 40.7008 26.6967C40.7434 26.5977 40.7745 26.4941 40.7934 26.388C40.8143 26.2865 40.8247 26.183 40.8243 26.0793C40.8245 25.9757 40.8142 25.8722 40.7934 25.7707C40.7745 25.6646 40.7434 25.561 40.7008 25.462C40.6599 25.3657 40.6114 25.2728 40.5558 25.1842C40.4958 25.0984 40.4287 25.0179 40.3552 24.9434C40.2822 24.8692 40.2015 24.803 40.1144 24.7459C40.0259 24.6883 39.933 24.6377 39.8366 24.5946C39.491 24.4552 39.1076 24.4409 38.7526 24.5542C38.3975 24.6674 38.0932 24.9012 37.8922 25.2151C37.8346 25.3036 37.7841 25.3965 37.741 25.4929C37.7008 25.5925 37.6709 25.6959 37.6515 25.8015C37.6322 25.9033 37.6219 26.0066 37.6206 26.1102C37.6217 26.2138 37.6321 26.3171 37.6515 26.4189C37.6722 26.5172 37.7022 26.6133 37.741 26.7059Z" fill="white"/>
</g>
<defs>
<clipPath id="clip0_234:39278">
<rect width="71" height="71" fill="white"/>
</clipPath>
</defs>
</svg>
