<svg width="76" height="70" viewBox="0 0 76 70" fill="none" xmlns="http://www.w3.org/2000/svg">
<g clip-path="url(#clip0_234:39267)">
<path d="M61.4011 6.30875C59.6093 6.15786 57.8205 6.63122 56.3399 7.64806C54.8593 8.66489 53.7787 10.1622 53.2826 11.8844C56.3244 10.4986 59.6804 9.94056 63.0091 10.2671C66.7257 10.5694 70.2656 11.9769 73.1701 14.3073C72.4076 13.7548 71.6015 13.2646 70.7598 12.8414L70.7142 12.8172H70.696C70.4771 12.7082 70.2583 12.6022 70.0334 12.5143C69.9513 12.475 69.8723 12.4416 69.7872 12.4053C69.7021 12.369 69.5258 12.2963 69.3951 12.2418L69.2644 12.1842L69.1458 12.1418C65.6323 10.7929 61.8082 10.458 58.1124 11.1757C56.349 11.517 54.6498 12.1301 53.0759 12.9928C53.0759 12.9928 53.0759 12.9928 53.0759 13.011C52.2114 13.4895 51.3968 14.0525 50.6443 14.6919C49.3244 16.0108 48.3471 17.6303 47.7968 19.4103C47.2465 21.1903 47.1399 23.0771 47.4863 24.9073C47.3711 24.1365 47.3456 23.355 47.4103 22.5783C47.7294 19.0712 49.8419 16.0699 52.9908 14.0589C52.9908 14.1831 52.9908 14.3103 52.9908 14.4435C52.9908 14.4829 52.9908 14.5193 52.9908 14.5617C52.9908 14.6041 52.9908 14.7282 53.0151 14.81C53.0394 14.8918 53.0303 14.916 53.0334 14.9735C53.0364 15.0311 53.0516 15.1068 53.0638 15.1795C53.0759 15.2522 53.085 15.2915 53.0942 15.3521C53.1033 15.4127 53.1154 15.4763 53.1276 15.5369C53.1397 15.5974 53.158 15.658 53.1671 15.7156C53.1762 15.7731 53.1975 15.8367 53.2097 15.8942C53.2218 15.9518 53.2461 16.0154 53.2613 16.076C53.2765 16.1365 53.2948 16.188 53.31 16.2456C53.3252 16.3031 53.3464 16.3637 53.3677 16.4242C53.389 16.4848 53.4042 16.5333 53.4255 16.5878C53.4467 16.6423 53.468 16.7089 53.4893 16.7665C53.5106 16.824 53.5349 16.8755 53.5562 16.927C53.5773 16.9858 53.6017 17.0434 53.6291 17.0996C53.6534 17.1572 53.6747 17.2086 53.7021 17.2601C53.7294 17.3116 53.7537 17.3752 53.7811 17.4267C53.8084 17.4782 53.8358 17.5327 53.8632 17.5842C53.8905 17.6357 53.9209 17.6932 53.9483 17.7477C53.9756 17.8022 54.009 17.8507 54.0364 17.8992L54.1337 18.0567L54.2279 18.2051L54.3282 18.3565C54.3647 18.408 54.4011 18.4595 54.4376 18.5049L54.5379 18.6472L54.6565 18.7987L54.7628 18.9289C54.8196 18.9996 54.8804 19.0692 54.9452 19.1379C54.9878 19.1863 55.0394 19.2378 55.082 19.2893L55.2431 19.4528L55.3586 19.5649L55.5045 19.7012L55.6291 19.8102C55.6777 19.8526 55.7233 19.895 55.775 19.9344C55.8179 19.974 55.8636 20.0104 55.9118 20.0434C55.9574 20.0828 56.006 20.1221 56.0577 20.1585L56.2005 20.2615C56.2522 20.2948 56.3008 20.3342 56.3495 20.3675C56.3981 20.4008 56.4498 20.4311 56.4984 20.4644C56.547 20.4977 56.6018 20.531 56.6565 20.5613C56.706 20.5951 56.7578 20.6255 56.8115 20.6522L56.9665 20.74C57.0212 20.7733 57.0729 20.7975 57.1276 20.8278C57.1823 20.8581 57.234 20.8823 57.2917 20.9066C57.3495 20.9308 57.4011 20.9611 57.4589 20.9853C57.513 21.0132 57.5688 21.0374 57.6261 21.058L57.7932 21.1307L57.9665 21.1943L58.1428 21.2548C58.1994 21.2772 58.2573 21.2964 58.316 21.3124L58.4954 21.3699C58.5562 21.3881 58.617 21.4002 58.6808 21.4154C58.7446 21.4305 58.7963 21.4487 58.854 21.4608L59.0516 21.5032L59.2249 21.5365C59.2991 21.552 59.3742 21.5632 59.4498 21.5698C59.4999 21.5808 59.5507 21.5889 59.6018 21.594C59.7233 21.6122 59.854 21.6274 59.9787 21.6334C65.7173 22.0635 71.5744 13.9378 75.9908 16.9906C75.9908 16.9906 72.0972 7.15675 61.4011 6.30875Z" fill="white"/>
<path d="M49.0365 14.4884C49.4084 13.9079 49.5665 13.2167 49.4839 12.5329C49.4013 11.8491 49.0831 11.2151 48.5836 10.739C45.6231 7.88913 41.7842 9.26714 41.7842 9.26714C43.7933 9.76383 42.9331 13.5072 44.5197 15.0215C45.0476 15.525 45.7449 15.8146 46.4755 15.8336C47.206 15.8527 47.9175 15.5998 48.4711 15.1244C48.5562 15.0548 48.0699 12.7954 46.6049 11.3145C45.7099 10.3673 44.5612 9.69564 43.2948 9.3792C44.7023 9.62639 46.0034 10.2878 47.0304 11.2781C47.9716 12.1531 48.6638 13.2607 49.0365 14.4884Z" fill="white"/>
<path d="M43.8569 26.7549C42.8132 26.9833 41.834 27.4414 40.9911 28.0957C40.1481 28.75 39.4627 29.5839 38.985 30.5363C38.5074 31.4887 38.2496 32.5355 38.2306 33.6001C38.2116 34.6646 38.4318 35.7199 38.8751 36.6887C39.4758 36.5531 40.0569 36.3425 40.6046 36.0617C42.2375 35.2182 43.4844 33.7838 44.0892 32.0531C44.694 30.3223 44.6109 28.4265 43.8569 26.7549Z" fill="white"/>
<path d="M34.6109 27.4424C34.4968 27.5828 34.4036 27.7388 34.3343 27.9058C33.9209 28.9476 34.5167 30.1711 35.6717 30.6921C35.7843 30.5518 35.8755 30.3956 35.9422 30.2287C36.3586 29.1868 35.7659 27.9663 34.6109 27.4424Z" fill="white"/>
<path d="M50.6898 27.9356C50.43 27.875 50.1628 27.8525 49.8965 27.869C48.2308 27.978 46.9755 29.5529 47.012 31.4306C47.2732 31.4883 47.5412 31.5097 47.8084 31.4942C49.474 31.3761 50.7293 29.8012 50.6898 27.9356Z" fill="white"/>
<path d="M47.9575 18.4168L47.9331 18.3986C47.7021 18.2563 47.4681 18.0957 47.231 17.9716L47.1429 17.9231C46.924 17.7959 46.7052 17.6748 46.4772 17.5567L46.3374 17.4809C46.1246 17.3719 45.9149 17.2689 45.6991 17.1781L45.5015 17.0872L44.8936 16.8207C44.8146 16.7844 44.7264 16.7511 44.6413 16.7208C44.4529 16.642 44.2614 16.5663 44.073 16.4967C43.9716 16.4583 43.8703 16.4219 43.769 16.3876C43.5927 16.321 43.4103 16.2604 43.231 16.2029L42.8602 16.0848L42.3495 15.9333C42.2188 15.897 42.0821 15.8667 41.9453 15.8334L41.462 15.7153C41.3131 15.682 41.1581 15.6547 41.0122 15.6274L40.5562 15.5336L40.0456 15.4578L39.6353 15.3973C39.4377 15.373 39.234 15.3549 39.0274 15.3367C38.9119 15.3367 38.8055 15.3064 38.693 15.2973C38.3891 15.2731 38.0608 15.2549 37.7416 15.2458C37.4225 15.2368 37.0547 15.2277 36.7113 15.2458H36.3495L35.696 15.2731C35.5441 15.2731 35.3921 15.3004 35.2371 15.3125C35.0821 15.3246 34.8784 15.3428 34.6991 15.364C34.5198 15.3852 34.3526 15.4124 34.1763 15.4366C34 15.4609 33.8723 15.476 33.7112 15.5002C33.5502 15.5245 33.3343 15.576 33.1459 15.6093C33.0152 15.6365 32.8784 15.6577 32.7447 15.688C32.541 15.7334 32.3343 15.7849 32.1368 15.8364C32.0274 15.8637 31.9179 15.8849 31.8085 15.9182C31.5836 15.9788 31.3647 16.0424 31.1429 16.112C31.0547 16.1393 30.9666 16.1605 30.8784 16.1908C30.6413 16.2665 30.4043 16.3513 30.1672 16.4361L29.9787 16.5057C29.7173 16.5996 29.462 16.7056 29.2097 16.8086C29.1702 16.8268 29.1337 16.8389 29.0942 16.8601C28.8176 16.9752 28.5471 17.1024 28.2796 17.2296L28.2371 17.2508C24.9371 18.8471 22.1364 21.3098 20.1366 24.3741C18.1367 27.4383 17.0134 30.9879 16.8875 34.6409C16.8502 35.8084 16.9163 36.9769 17.0851 38.1329C17.0142 37.3607 16.9939 36.5848 17.0243 35.81C17.141 32.4202 18.1834 29.1264 20.0392 26.2831C21.895 23.4397 24.4939 21.1546 27.5562 19.6736C27.5685 19.6658 27.5818 19.6597 27.5957 19.6555C27.845 19.5343 28.0973 19.4192 28.3526 19.3102C28.386 19.292 28.4255 19.2799 28.459 19.2648C28.696 19.1648 28.9331 19.071 29.1702 18.9801L29.3495 18.9165C29.5654 18.8377 29.7872 18.759 30.0091 18.6893C30.0881 18.6621 30.1702 18.6409 30.2553 18.6167C30.459 18.5531 30.6626 18.4925 30.8632 18.438C30.9635 18.4077 31.0699 18.3865 31.1672 18.3623C31.3587 18.3168 31.5471 18.2623 31.7416 18.2229C31.8602 18.1957 31.9878 18.1775 32.1125 18.1533C32.2857 18.1169 32.459 18.0806 32.6353 18.0503C32.8116 18.02 32.9392 18.0109 33.0669 17.9897C33.1945 17.9685 33.3708 17.9413 33.5502 17.9231L34.0456 17.8807C34.1854 17.8807 34.3283 17.8535 34.4711 17.8474C34.6717 17.8474 34.8754 17.8262 35.079 17.8201H35.4134C35.7173 17.8201 36.0456 17.8201 36.3708 17.8201C36.6961 17.8201 36.9574 17.8504 37.2492 17.8716H37.6565C37.9392 17.8716 38.2188 17.9019 38.4985 17.9231L38.7751 17.9504L39.3283 18.0109L39.6535 18.0564L40.1429 18.1351L40.4894 18.2017L40.9483 18.3017L41.2979 18.3804C41.4438 18.4168 41.5866 18.4592 41.7325 18.4985C41.8784 18.5379 41.9726 18.5591 42.0912 18.5955C42.2097 18.6318 42.3374 18.6772 42.465 18.7166C42.7508 18.8075 43.0334 18.9074 43.31 19.0195L43.5228 19.0982C43.6991 19.1679 43.8693 19.2375 44.0365 19.3163L44.228 19.395L44.7599 19.6464C44.8022 19.67 44.8458 19.6912 44.8906 19.71C45.0821 19.8069 45.2766 19.9068 45.462 20.0128H45.4924C47.7111 21.235 49.6388 22.92 51.1439 24.9528C52.6489 26.9855 53.6957 29.3181 54.2128 31.791H54.228C55.0071 35.4957 54.5514 39.3526 52.9301 42.7757C54.1359 41.4534 55.1349 39.9576 55.8936 38.3388C56.5199 36.8995 56.9532 35.3843 57.1824 33.8323C56.9464 30.7268 55.9905 27.7182 54.3898 25.0433C52.789 22.3684 50.5872 20.1 47.9575 18.4168Z" fill="white"/>
<path d="M26.8906 43.1422C23.6201 40.3801 22.6778 36.1401 24.7842 33.6688C25.1892 33.1941 25.6879 32.8075 26.2492 32.533C26.0604 32.6924 25.8836 32.8655 25.7204 33.0509C23.6201 35.5192 24.5623 39.7593 27.8298 42.5244C27.9696 42.6425 28.1094 42.7485 28.2523 42.8575C30.6839 42.2518 33.5137 41.0191 36.8055 38.8416C36.0281 37.0025 34.9439 35.3078 33.5988 33.8293C31.0182 31.0097 26.9818 30.4978 24.3799 32.5785C17.2614 25.7823 10.1429 18.9852 3.02432 12.187C2.8447 12.0291 2.63563 11.908 2.40904 11.8306C2.18245 11.7532 1.94279 11.7211 1.70373 11.736C1.46466 11.7509 1.23089 11.8126 1.01575 11.9175C0.800611 12.0224 0.608321 12.1685 0.449856 12.3475C0.291392 12.5265 0.169858 12.7348 0.092193 12.9606C0.0145285 13.1863 -0.0177461 13.4251 -0.00278714 13.6634C0.0121718 13.9016 0.0740717 14.1345 0.179377 14.3489C0.284682 14.5632 0.43133 14.7548 0.61095 14.9127L23.3799 33.7142C21.6079 36.5217 22.5806 40.4619 25.69 42.6879C25.9423 42.8727 26.2128 43.0513 26.4894 43.227L26.9027 43.1573L26.8906 43.1422Z" fill="white"/>
<path d="M18.0547 42.0916C19.3568 45.7298 21.6836 48.917 24.7566 51.2715C27.8296 53.6261 31.5185 55.0483 35.3818 55.3678C39.245 55.6874 43.1188 54.8908 46.5394 53.0733C49.96 51.2559 52.7824 48.4947 54.6687 45.1202C52.0849 47.5924 48.8181 49.2382 45.2882 49.8458C41.7583 50.4535 38.1267 49.9954 34.8602 48.5304C34.3982 48.3154 33.9483 48.0822 33.5198 47.8429C37.7666 49.3402 42.423 49.1937 46.5666 47.4325C50.7102 45.6713 54.039 42.4238 55.8936 38.3332C56.267 37.4595 56.5718 36.5583 56.8055 35.6377C55.4377 34.5232 50.5167 31.7399 40.5258 38.6481C23.2644 50.5899 17.2249 39.7687 18.0547 42.0916Z" fill="white"/>
<path d="M36.3891 6.12991C41.2199 6.12452 45.9731 7.34059 50.2037 9.66428C51.0049 7.71819 52.3355 6.03364 54.0457 4.80036C46.8294 0.563601 38.3215 -0.937624 30.0839 0.572247C21.8462 2.08212 14.4315 6.50177 9.20068 13.02L13.6809 17.2933C16.3553 13.8241 19.7937 11.0133 23.7309 9.07782C27.6681 7.14229 31.9988 6.13373 36.3891 6.12991Z" fill="white"/>
<path d="M63.3223 24.9071C64.5041 28.0628 65.1124 31.403 65.1186 34.7712C65.12 38.8833 64.2321 42.9474 62.5155 46.6868C60.7988 50.4262 58.2937 53.7532 55.1707 56.4413C52.0477 59.1293 48.38 61.1153 44.4174 62.2641C40.4549 63.4129 36.2904 63.6975 32.2075 63.0984C28.1247 62.4994 24.2193 61.0309 20.7572 58.7928C17.2951 56.5547 14.3576 53.5997 12.1447 50.1287C9.93182 46.6578 8.49545 42.7526 7.9334 38.6788C7.37135 34.6051 7.69681 30.4585 8.88762 26.5214L3.82683 22.3268C1.79995 27.5911 1.08901 33.2678 1.75536 38.867C2.42171 44.4663 4.44534 49.8199 7.65163 54.4659C10.8579 59.1119 15.1506 62.9109 20.1592 65.5349C25.1679 68.159 30.7421 69.5293 36.4009 69.5278C42.0597 69.5262 47.6331 68.1527 52.6403 65.5259C57.6475 62.899 61.938 59.0977 65.1417 54.4499C68.3454 49.802 70.366 44.4473 71.0292 38.8477C71.6924 33.2481 70.9782 27.5718 68.9484 22.3086C67.2281 23.3232 65.3527 24.3468 63.3223 24.9071Z" fill="white"/>
</g>
<defs>
<clipPath id="clip0_234:39267">
<rect width="76" height="69.5122" fill="white"/>
</clipPath>
</defs>
</svg>
