<svg width="46" height="45" viewBox="0 0 46 45" fill="none" xmlns="http://www.w3.org/2000/svg">
<circle cx="22.982" cy="22.4312" r="22.4312" fill="#FBAD31"/>
<path d="M32.3733 21.158L31.3857 19.8801L31.2297 19.6757C30.9707 19.3433 30.771 18.908 30.4325 18.7114C30.0939 18.5148 29.6368 18.5788 29.2156 18.5242C29.292 18.2043 29.3716 17.8533 29.4683 17.5069C29.4839 17.4523 29.5681 17.4148 29.6243 17.3789C29.6493 17.3649 29.6883 17.3789 29.721 17.3789C30.9177 17.3196 30.9177 17.3196 31.6556 18.2558C32.3359 19.1218 33.0208 19.9846 33.6838 20.8599C33.7926 21.0143 33.8539 21.1971 33.8601 21.3858C33.8804 22.0005 33.8601 22.6168 33.8601 23.2316C33.8601 23.8229 33.6589 24.0117 33.0551 24.0117H23.6942H11.709C11.0959 24.0117 10.8915 23.8073 10.8915 23.1988C10.8915 22.6153 10.8743 22.0317 10.8993 21.4497C10.9077 21.2491 10.9738 21.0552 11.0896 20.8911C11.9087 19.8192 12.7496 18.7629 13.5781 17.6988C13.6564 17.5894 13.7607 17.5013 13.8817 17.4424C14.0027 17.3836 14.1364 17.3558 14.2708 17.3618C16.3645 17.3701 18.4588 17.3701 20.5536 17.3618C20.7704 17.3618 20.8827 17.4008 20.9139 17.6504C20.9715 17.9563 21.0492 18.2581 21.1464 18.5538C21.0232 18.5538 20.9108 18.5694 20.7985 18.5694C18.789 18.5694 16.7811 18.5694 14.7732 18.5694C14.6783 18.5618 14.5832 18.5795 14.4974 18.6206C14.4116 18.6617 14.3383 18.7248 14.2848 18.8035C13.7591 19.5009 13.2161 20.1859 12.681 20.8771C12.6233 20.9504 12.5749 21.0331 12.4922 21.1533L32.3733 21.158Z" fill="white"/>
<path d="M25.2028 10.2282C25.5507 11.6949 26.5492 12.7387 27.3511 13.9042C27.8925 14.6844 28.3293 15.516 28.4432 16.4928C28.6414 18.1498 27.4245 19.8068 25.7738 20.0721C23.2042 20.4856 21.2494 18.1732 22.0856 15.6533C22.2947 15.0198 22.6613 14.4285 23.0217 13.8574C23.4492 13.174 23.9781 12.5515 24.404 11.8649C24.7129 11.3703 24.922 10.8149 25.2028 10.2282ZM25.0858 19.0844L25.365 18.9284C25.2933 18.8223 25.248 18.6787 25.1497 18.6163C24.3534 18.1128 23.6899 17.4252 23.2152 16.6113C23.1559 16.5084 23.0061 16.4553 22.9031 16.3851C22.8454 16.513 22.7268 16.6472 22.7471 16.7674C22.8782 18.0484 23.7144 18.9206 25.0858 19.0844Z" fill="white"/>
<path d="M25.159 26.0417C25.1995 26.0979 25.2354 26.126 25.2432 26.1603C25.485 27.1324 26.0732 27.9 26.6879 28.6568C27.0826 29.142 27.4867 29.6226 27.8378 30.1391C28.6646 31.3608 28.9642 32.673 28.3542 34.0835C28.0491 34.7755 27.5271 35.3494 26.8671 35.7184C26.207 36.0874 25.4448 36.2316 24.6956 36.129C23.9553 36.0205 23.2683 35.6809 22.7325 35.1586C22.1968 34.6362 21.8398 33.958 21.7126 33.2206C21.5347 32.1284 21.814 31.1423 22.4193 30.2561C22.8 29.6944 23.2306 29.1639 23.6597 28.6412C24.2697 27.8922 24.8329 27.1214 25.0872 26.1697C25.1052 26.1239 25.1293 26.0809 25.159 26.0417V26.0417ZM25.2058 29.0937C24.9437 29.3698 24.7377 29.5617 24.5614 29.7739C23.9904 30.4355 23.4038 31.0908 23.1573 31.9584C23.0205 32.3999 23.031 32.874 23.1872 33.3092C23.3434 33.7443 23.6368 34.1168 24.0232 34.3706C24.3874 34.5975 24.8136 34.7045 25.2418 34.6765C25.67 34.6485 26.0786 34.4869 26.4102 34.2145C27.2059 33.567 27.4352 32.4264 26.8517 31.4263C26.3806 30.6243 25.7783 29.8972 25.2058 29.0937Z" fill="white"/>
<path d="M18.1523 24.5501C18.3785 25.4488 18.9323 26.151 19.4628 26.8703C19.9933 27.5896 20.4941 28.3494 20.6282 29.2856C20.7076 29.945 20.5272 30.6095 20.1254 31.1383C19.7236 31.6672 19.1318 32.0189 18.4752 32.1191C17.817 32.2155 17.1473 32.0481 16.6118 31.6534C16.0763 31.2586 15.7182 30.6685 15.6155 30.0111C15.5336 29.344 15.6611 28.6678 15.9805 28.0764C16.09 27.8539 16.2162 27.64 16.3581 27.4367C16.6842 26.9686 17.0477 26.5239 17.3503 26.0324C17.653 25.5409 17.8777 25.0681 18.1523 24.5501ZM18.1148 27.0747C17.8262 27.4757 17.5563 27.8002 17.3457 28.1669C17.1358 28.5033 16.9736 28.8672 16.8636 29.2482C16.7924 29.5063 16.8061 29.7806 16.9028 30.0304C16.9994 30.2802 17.1738 30.4922 17.4003 30.6353C17.6122 30.7874 17.8654 30.8713 18.1262 30.8758C18.387 30.8802 18.643 30.8051 18.8599 30.6603C19.0769 30.5155 19.2446 30.308 19.3406 30.0654C19.4366 29.8229 19.4564 29.5568 19.3973 29.3028C19.2319 28.4321 18.6406 27.8189 18.1148 27.0747Z" fill="white"/>
<path d="M18.1507 10.2577C18.3785 11.0472 18.8902 11.6354 19.3364 12.2642C19.7077 12.7854 20.0166 13.3268 20.0978 13.9806C20.2366 15.0868 19.4207 16.1431 18.3239 16.2399C17.146 16.3413 16.1396 15.494 16.1396 14.3379C16.1594 13.89 16.261 13.4495 16.4392 13.0381C16.5812 12.6855 16.848 12.3828 17.0633 12.063C17.2583 11.7774 17.4798 11.5122 17.6577 11.2173C17.8355 10.9224 17.9682 10.6103 18.1507 10.2577Z" fill="white"/>
</svg>
