<svg width="110" height="50" viewBox="0 0 110 50" fill="none" xmlns="http://www.w3.org/2000/svg">
<path d="M6.59914 0.999999H11.5791C13.2791 0.999999 14.5191 1.4 15.2991 2.2C16.0791 2.98 16.4691 4.19 16.4691 5.83V6.67C16.4691 7.75 16.2891 8.63 15.9291 9.31C15.5891 9.99 15.0591 10.48 14.3391 10.78V10.84C15.9791 11.4 16.7991 12.86 16.7991 15.22V17.02C16.7991 18.64 16.3691 19.88 15.5091 20.74C14.6691 21.58 13.4291 22 11.7891 22H6.59914V0.999999ZM11.1891 9.55C11.8491 9.55 12.3391 9.38 12.6591 9.04C12.9991 8.7 13.1691 8.13 13.1691 7.33V6.16C13.1691 5.4 13.0291 4.85 12.7491 4.51C12.4891 4.17 12.0691 4 11.4891 4H9.89914V9.55H11.1891ZM11.7891 19C12.3691 19 12.7991 18.85 13.0791 18.55C13.3591 18.23 13.4991 17.69 13.4991 16.93V15.1C13.4991 14.14 13.3291 13.48 12.9891 13.12C12.6691 12.74 12.1291 12.55 11.3691 12.55H9.89914V19H11.7891ZM18.728 0.999999H22.028V22H18.728V0.999999ZM29.1795 22.3C27.5795 22.3 26.3595 21.85 25.5195 20.95C24.6795 20.03 24.2595 18.72 24.2595 17.02V5.98C24.2595 4.28 24.6795 2.98 25.5195 2.08C26.3595 1.16 27.5795 0.699999 29.1795 0.699999C30.7795 0.699999 31.9995 1.16 32.8395 2.08C33.6795 2.98 34.0995 4.28 34.0995 5.98V7.78H30.9795V5.77C30.9795 4.39 30.4095 3.7 29.2695 3.7C28.1295 3.7 27.5595 4.39 27.5595 5.77V17.26C27.5595 18.62 28.1295 19.3 29.2695 19.3C30.4095 19.3 30.9795 18.62 30.9795 17.26V13.15H29.3295V10.15H34.0995V17.02C34.0995 18.72 33.6795 20.03 32.8395 20.95C31.9995 21.85 30.7795 22.3 29.1795 22.3ZM41.023 0.999999H49.753V4H44.323V9.85H48.583V12.85H44.323V22H41.023V0.999999ZM56.1055 22.3C54.4855 22.3 53.2455 21.84 52.3855 20.92C51.5255 20 51.0955 18.7 51.0955 17.02V5.98C51.0955 4.3 51.5255 3 52.3855 2.08C53.2455 1.16 54.4855 0.699999 56.1055 0.699999C57.7255 0.699999 58.9655 1.16 59.8255 2.08C60.6855 3 61.1155 4.3 61.1155 5.98V17.02C61.1155 18.7 60.6855 20 59.8255 20.92C58.9655 21.84 57.7255 22.3 56.1055 22.3ZM56.1055 19.3C57.2455 19.3 57.8155 18.61 57.8155 17.23V5.77C57.8155 4.39 57.2455 3.7 56.1055 3.7C54.9655 3.7 54.3955 4.39 54.3955 5.77V17.23C54.3955 18.61 54.9655 19.3 56.1055 19.3ZM68.1172 22.3C66.4972 22.3 65.2572 21.84 64.3972 20.92C63.5372 20 63.1072 18.7 63.1072 17.02V5.98C63.1072 4.3 63.5372 3 64.3972 2.08C65.2572 1.16 66.4972 0.699999 68.1172 0.699999C69.7372 0.699999 70.9772 1.16 71.8372 2.08C72.6972 3 73.1272 4.3 73.1272 5.98V17.02C73.1272 18.7 72.6972 20 71.8372 20.92C70.9772 21.84 69.7372 22.3 68.1172 22.3ZM68.1172 19.3C69.2572 19.3 69.8272 18.61 69.8272 17.23V5.77C69.8272 4.39 69.2572 3.7 68.1172 3.7C66.9772 3.7 66.4072 4.39 66.4072 5.77V17.23C66.4072 18.61 66.9772 19.3 68.1172 19.3ZM75.3589 0.999999H80.3989C82.0389 0.999999 83.2689 1.44 84.0889 2.32C84.9089 3.2 85.3189 4.49 85.3189 6.19V16.81C85.3189 18.51 84.9089 19.8 84.0889 20.68C83.2689 21.56 82.0389 22 80.3989 22H75.3589V0.999999ZM80.3389 19C80.8789 19 81.2889 18.84 81.5689 18.52C81.8689 18.2 82.0189 17.68 82.0189 16.96V6.04C82.0189 5.32 81.8689 4.8 81.5689 4.48C81.2889 4.16 80.8789 4 80.3389 4H78.6589V19H80.3389ZM95.8011 22.3C94.6011 22.3 93.6911 21.89 93.0711 21.07C92.4511 20.25 92.1411 19.06 92.1411 17.5V15.31C92.1411 14.21 92.3311 13.29 92.7111 12.55C93.0911 11.81 93.7111 11.27 94.5711 10.93V10.87C93.7911 10.55 93.2111 10.04 92.8311 9.34C92.4711 8.62 92.2911 7.7 92.2911 6.58V6.19C92.2911 4.49 92.7011 3.2 93.5211 2.32C94.3411 1.44 95.5711 0.999999 97.2111 0.999999H100.991V4H97.2711C96.7311 4 96.3111 4.16 96.0111 4.48C95.7311 4.8 95.5911 5.32 95.5911 6.04V7.33C95.5911 8.13 95.7511 8.7 96.0711 9.04C96.4111 9.38 96.9111 9.55 97.5711 9.55H98.8611V7.21H102.101V9.55H103.031V12.55H102.101V19.45C102.101 20.05 102.121 20.54 102.161 20.92C102.201 21.28 102.301 21.64 102.461 22H99.1611C99.0011 21.56 98.9011 21.01 98.8611 20.35H98.8011C98.4411 21.01 98.0211 21.5 97.5411 21.82C97.0811 22.14 96.5011 22.3 95.8011 22.3ZM97.0311 19.3C98.0711 19.3 98.6811 18.67 98.8611 17.41V12.55H97.6011C96.8411 12.55 96.2911 12.76 95.9511 13.18C95.6111 13.58 95.4411 14.26 95.4411 15.22V17.35C95.4411 18.05 95.5811 18.55 95.8611 18.85C96.1411 19.15 96.5311 19.3 97.0311 19.3ZM0.271016 28H5.25102C6.95102 28 8.19102 28.4 8.97102 29.2C9.75102 29.98 10.141 31.19 10.141 32.83V33.67C10.141 34.75 9.96102 35.63 9.60102 36.31C9.26102 36.99 8.73102 37.48 8.01102 37.78V37.84C9.65102 38.4 10.471 39.86 10.471 42.22V44.02C10.471 45.64 10.041 46.88 9.18102 47.74C8.34102 48.58 7.10102 49 5.46102 49H0.271016V28ZM4.86102 36.55C5.52102 36.55 6.01102 36.38 6.33102 36.04C6.67102 35.7 6.84102 35.13 6.84102 34.33V33.16C6.84102 32.4 6.70102 31.85 6.42102 31.51C6.16102 31.17 5.74102 31 5.16102 31H3.57102V36.55H4.86102ZM5.46102 46C6.04102 46 6.47102 45.85 6.75102 45.55C7.03102 45.23 7.17102 44.69 7.17102 43.93V42.1C7.17102 41.14 7.00102 40.48 6.66102 40.12C6.34102 39.74 5.80102 39.55 5.04102 39.55H3.57102V46H5.46102ZM12.3999 28H15.6999V49H12.3999V28ZM22.8514 49.3C21.2514 49.3 20.0314 48.85 19.1914 47.95C18.3514 47.03 17.9314 45.72 17.9314 44.02V32.98C17.9314 31.28 18.3514 29.98 19.1914 29.08C20.0314 28.16 21.2514 27.7 22.8514 27.7C24.4514 27.7 25.6714 28.16 26.5114 29.08C27.3514 29.98 27.7714 31.28 27.7714 32.98V34.78H24.6514V32.77C24.6514 31.39 24.0814 30.7 22.9414 30.7C21.8014 30.7 21.2314 31.39 21.2314 32.77V44.26C21.2314 45.62 21.8014 46.3 22.9414 46.3C24.0814 46.3 24.6514 45.62 24.6514 44.26V40.15H23.0014V37.15H27.7714V44.02C27.7714 45.72 27.3514 47.03 26.5114 47.95C25.6714 48.85 24.4514 49.3 22.8514 49.3ZM34.6948 28H39.5548C41.1948 28 42.4248 28.44 43.2448 29.32C44.0648 30.2 44.4748 31.49 44.4748 33.19V35.26C44.4748 36.96 44.0648 38.25 43.2448 39.13C42.4248 40.01 41.1948 40.45 39.5548 40.45H37.9948V49H34.6948V28ZM39.5548 37.45C40.0948 37.45 40.4948 37.3 40.7548 37C41.0348 36.7 41.1748 36.19 41.1748 35.47V32.98C41.1748 32.26 41.0348 31.75 40.7548 31.45C40.4948 31.15 40.0948 31 39.5548 31H37.9948V37.45H39.5548ZM46.2671 28H49.5671V36.55H53.1071V28H56.4071V49H53.1071V39.55H49.5671V49H46.2671V28ZM61.4148 28H65.8848L69.3048 49H66.0048L65.4048 44.83V44.89H61.6548L61.0548 49H57.9948L61.4148 28ZM65.0148 42.04L63.5448 31.66H63.4848L62.0448 42.04H65.0148ZM70.9058 28H75.7958C77.4958 28 78.7358 28.4 79.5158 29.2C80.2958 29.98 80.6858 31.19 80.6858 32.83V34.12C80.6858 36.3 79.9658 37.68 78.5258 38.26V38.32C79.3258 38.56 79.8858 39.05 80.2058 39.79C80.5458 40.53 80.7158 41.52 80.7158 42.76V46.45C80.7158 47.05 80.7358 47.54 80.7758 47.92C80.8158 48.28 80.9158 48.64 81.0758 49H77.7158C77.5958 48.66 77.5158 48.34 77.4758 48.04C77.4358 47.74 77.4158 47.2 77.4158 46.42V42.58C77.4158 41.62 77.2558 40.95 76.9358 40.57C76.6358 40.19 76.1058 40 75.3458 40H74.2058V49H70.9058V28ZM75.4058 37C76.0658 37 76.5558 36.83 76.8758 36.49C77.2158 36.15 77.3858 35.58 77.3858 34.78V33.16C77.3858 32.4 77.2458 31.85 76.9658 31.51C76.7058 31.17 76.2858 31 75.7058 31H74.2058V37H75.4058ZM83.0054 28H87.7154L89.8154 43.03H89.8754L91.9754 28H96.6854V49H93.5654V33.1H93.5054L91.1054 49H88.3454L85.9454 33.1H85.8854V49H83.0054V28ZM101.698 28H106.168L109.588 49H106.288L105.688 44.83V44.89H101.938L101.338 49H98.278L101.698 28ZM105.298 42.04L103.828 31.66H103.768L102.328 42.04H105.298Z" fill="#484848"/>
</svg>
