<svg width="13" height="15" viewBox="0 0 13 15" fill="none" xmlns="http://www.w3.org/2000/svg">
<path d="M6.5001 0C4.34964 0 2.6001 1.74954 2.6001 3.9C2.6001 6.05046 4.34964 7.8 6.5001 7.8C8.65056 7.8 10.4001 6.05046 10.4001 3.9C10.4001 1.74954 8.65056 0 6.5001 0Z" fill="white"/>
<path d="M11.3524 10.3479C10.2846 9.26373 8.86915 8.66669 7.36667 8.66669H5.63333C4.13088 8.66669 2.71538 9.26373 1.64765 10.3479C0.585144 11.4267 0 12.8508 0 14.3578C0 14.5971 0.194018 14.7911 0.433333 14.7911H12.5667C12.806 14.7911 13 14.5971 13 14.3578C13 12.8508 12.4149 11.4267 11.3524 10.3479Z" fill="white"/>
</svg>
