<svg width="45" height="45" viewBox="0 0 45 45" fill="none" xmlns="http://www.w3.org/2000/svg">
<circle cx="22.4312" cy="22.4312" r="22.4312" fill="#EE2C44"/>
<g clip-path="url(#clip0_234:39660)">
<path d="M32.3124 13.0964C31.5658 13.0335 30.8205 13.2307 30.2036 13.6544C29.5867 14.0781 29.1364 14.702 28.9297 15.4195C30.1971 14.8421 31.5955 14.6096 32.9824 14.7457C34.5309 14.8717 36.0059 15.4581 37.2161 16.429C36.8984 16.1989 36.5625 15.9946 36.2118 15.8183L36.1928 15.8082H36.1852C36.094 15.7628 36.0028 15.7186 35.9091 15.682C35.8749 15.6656 35.842 15.6517 35.8065 15.6366C35.7711 15.6214 35.6976 15.5912 35.6431 15.5684L35.5887 15.5445L35.5393 15.5268C34.0753 14.9647 32.482 14.8252 30.9421 15.1243V15.1243C30.2074 15.2665 29.4994 15.5219 28.8436 15.8814C28.8436 15.8814 28.8436 15.8814 28.8436 15.889C28.4834 16.0883 28.144 16.3229 27.8305 16.5893C27.2805 17.1388 26.8733 17.8136 26.644 18.5553C26.4147 19.2969 26.3703 20.0831 26.5146 20.8457C26.4666 20.5245 26.456 20.1989 26.483 19.8753C26.6159 18.414 27.4961 17.1635 28.8081 16.3256C28.8081 16.3773 28.8081 16.4303 28.8081 16.4858C28.8081 16.5022 28.8081 16.5174 28.8081 16.535C28.8081 16.5527 28.8081 16.6045 28.8183 16.6385C28.8284 16.6726 28.8246 16.6827 28.8259 16.7067C28.8271 16.7306 28.8335 16.7622 28.8385 16.7925C28.8436 16.8228 28.8474 16.8392 28.8512 16.8644C28.855 16.8896 28.8601 16.9161 28.8651 16.9414C28.8702 16.9666 28.8778 16.9919 28.8816 17.0158C28.8854 17.0398 28.8943 17.0663 28.8993 17.0903C28.9044 17.1143 28.9145 17.1408 28.9209 17.166C28.9272 17.1912 28.9348 17.2127 28.9411 17.2367C28.9475 17.2606 28.9563 17.2859 28.9652 17.3111C28.9741 17.3364 28.9804 17.3565 28.9892 17.3793C28.9981 17.402 29.007 17.4297 29.0158 17.4537C29.0247 17.4777 29.0348 17.4991 29.0437 17.5206C29.0525 17.5451 29.0627 17.5691 29.0741 17.5925C29.0842 17.6165 29.0931 17.6379 29.1045 17.6594C29.1159 17.6808 29.126 17.7073 29.1374 17.7288C29.1488 17.7503 29.1602 17.773 29.1716 17.7944C29.183 17.8159 29.1957 17.8398 29.2071 17.8626C29.2185 17.8853 29.2324 17.9055 29.2438 17.9257L29.2843 17.9913L29.3236 18.0531L29.3654 18.1162C29.3806 18.1377 29.3958 18.1591 29.411 18.178L29.4528 18.2373L29.5022 18.3004L29.5465 18.3547C29.5701 18.3841 29.5955 18.4132 29.6225 18.4418C29.6402 18.462 29.6617 18.4834 29.6795 18.5049L29.7466 18.573L29.7947 18.6197L29.8555 18.6765L29.9074 18.7219C29.9277 18.7396 29.9467 18.7572 29.9682 18.7736C29.9861 18.7902 30.0051 18.8053 30.0252 18.8191C30.0442 18.8355 30.0645 18.8519 30.086 18.867L30.1455 18.9099C30.167 18.9238 30.1873 18.9402 30.2076 18.9541C30.2278 18.968 30.2494 18.9806 30.2696 18.9945C30.2899 19.0084 30.3127 19.0222 30.3355 19.0349C30.3561 19.049 30.3777 19.0616 30.4001 19.0727L30.4647 19.1093C30.4875 19.1232 30.509 19.1333 30.5318 19.1459C30.5546 19.1585 30.5761 19.1686 30.6002 19.1787C30.6242 19.1888 30.6458 19.2014 30.6698 19.2115C30.6923 19.2231 30.7156 19.2333 30.7395 19.2418L30.8091 19.2721L30.8813 19.2986L30.9548 19.3238C30.9784 19.3331 31.0025 19.3411 31.027 19.3478L31.1017 19.3718C31.127 19.3794 31.1523 19.3844 31.1789 19.3907C31.2055 19.397 31.2271 19.4046 31.2511 19.4096L31.3334 19.4273L31.4056 19.4412C31.4366 19.4477 31.4679 19.4523 31.4993 19.4551C31.5202 19.4597 31.5414 19.463 31.5627 19.4652C31.6133 19.4727 31.6678 19.479 31.7197 19.4816C34.1108 19.6608 36.5512 16.2751 38.3913 17.5471C38.3913 17.5471 36.769 13.4497 32.3124 13.0964Z" fill="white"/>
<path d="M27.1604 16.5047C27.3154 16.2628 27.3813 15.9748 27.3468 15.6899C27.3124 15.405 27.1798 15.1408 26.9717 14.9425C25.7382 13.755 24.1387 14.3292 24.1387 14.3292C24.9758 14.5362 24.6174 16.0959 25.2785 16.7268C25.4984 16.9366 25.7889 17.0573 26.0933 17.0652C26.3977 17.0731 26.6942 16.9678 26.9249 16.7697C26.9603 16.7407 26.7577 15.7993 26.1473 15.1822C25.7744 14.7876 25.2957 14.5077 24.7681 14.3759C25.3546 14.4789 25.8966 14.7545 26.3246 15.1671C26.7167 15.5317 27.0051 15.9932 27.1604 16.5047V16.5047Z" fill="white"/>
<path d="M25.0024 21.6155C24.5676 21.7106 24.1596 21.9015 23.8084 22.1741C23.4571 22.4468 23.1715 22.7942 22.9725 23.191C22.7735 23.5879 22.6661 24.024 22.6582 24.4676C22.6503 24.9111 22.742 25.3508 22.9267 25.7545C23.177 25.698 23.4191 25.6102 23.6473 25.4933C24.3277 25.1418 24.8472 24.5442 25.0992 23.823C25.3512 23.1019 25.3166 22.312 25.0024 21.6155V21.6155Z" fill="white"/>
<path d="M21.1499 21.9019C21.1023 21.9604 21.0635 22.0255 21.0346 22.095C20.8624 22.5291 21.1106 23.0389 21.5919 23.256C21.6388 23.1975 21.6768 23.1324 21.7046 23.0629C21.8781 22.6288 21.6311 22.1203 21.1499 21.9019Z" fill="white"/>
<path d="M27.8496 22.1075C27.7414 22.0823 27.63 22.0729 27.5191 22.0798C26.8251 22.1252 26.302 22.7814 26.3172 23.5637C26.4261 23.5878 26.5377 23.5967 26.649 23.5902C27.343 23.541 27.8661 22.8848 27.8496 22.1075Z" fill="white"/>
<path d="M26.711 18.1415L26.7009 18.1339C26.6047 18.0746 26.5071 18.0077 26.4084 17.956L26.3716 17.9358C26.2804 17.8828 26.1893 17.8323 26.0943 17.7831L26.036 17.7515C25.9474 17.7061 25.86 17.6632 25.7701 17.6253L25.6878 17.5875L25.4345 17.4764C25.4015 17.4613 25.3648 17.4474 25.3293 17.4348C25.2508 17.402 25.171 17.3704 25.0925 17.3414C25.0503 17.3254 25.0081 17.3103 24.9659 17.296C24.8924 17.2682 24.8164 17.243 24.7417 17.219L24.5872 17.1698L24.3744 17.1067C24.32 17.0916 24.263 17.0789 24.206 17.0651L24.0046 17.0159C23.9426 17.002 23.878 16.9906 23.8172 16.9793L23.6272 16.9401L23.4145 16.9086L23.2435 16.8834C23.1612 16.8733 23.0763 16.8657 22.9902 16.8581C22.9421 16.8581 22.8978 16.8455 22.8509 16.8417C22.7243 16.8316 22.5875 16.824 22.4545 16.8203C22.3215 16.8165 22.1683 16.8127 22.0252 16.8203H21.8745L21.6022 16.8316C21.5389 16.8316 21.4756 16.843 21.411 16.848C21.3464 16.8531 21.2615 16.8606 21.1868 16.8695C21.1121 16.8783 21.0424 16.8897 20.969 16.8998C20.8955 16.9099 20.8423 16.9162 20.7752 16.9263C20.7081 16.9364 20.6182 16.9578 20.5397 16.9717C20.4852 16.983 20.4282 16.9919 20.3725 17.0045C20.2876 17.0234 20.2015 17.0449 20.1192 17.0663C20.0736 17.0777 20.028 17.0865 19.9824 17.1004C19.8887 17.1256 19.7975 17.1521 19.7051 17.1812C19.6683 17.1925 19.6316 17.2014 19.5949 17.214C19.4961 17.2455 19.3973 17.2808 19.2985 17.3162L19.22 17.3452C19.1111 17.3843 19.0047 17.4285 18.8996 17.4714C18.8831 17.479 18.8679 17.484 18.8515 17.4928C18.7362 17.5408 18.6235 17.5938 18.5121 17.6468L18.4943 17.6556C17.1194 18.3207 15.9524 19.3469 15.1192 20.6236C14.2859 21.9004 13.8179 23.3794 13.7654 24.9014C13.7499 25.3879 13.7774 25.8747 13.8478 26.3564C13.8182 26.0346 13.8098 25.7113 13.8224 25.3885C13.871 23.9761 14.3054 22.6037 15.0786 21.419C15.8518 20.2343 16.9347 19.2822 18.2107 18.6651C18.2158 18.6619 18.2213 18.6593 18.2271 18.6576C18.331 18.6071 18.4361 18.5591 18.5425 18.5137C18.5564 18.5061 18.5729 18.5011 18.5868 18.4948C18.6856 18.4531 18.7844 18.414 18.8831 18.3762L18.9579 18.3497C19.0478 18.3169 19.1402 18.2841 19.2327 18.255C19.2656 18.2437 19.2998 18.2348 19.3353 18.2247C19.4201 18.1982 19.505 18.173 19.5886 18.1503C19.6303 18.1377 19.6747 18.1288 19.7152 18.1187C19.795 18.0998 19.8735 18.0771 19.9546 18.0607C20.0039 18.0493 20.0571 18.0418 20.1091 18.0317C20.1812 18.0165 20.2534 18.0014 20.3269 17.9888C20.4003 17.9762 20.4535 17.9724 20.5067 17.9635C20.5599 17.9547 20.6334 17.9433 20.7081 17.9358L20.9145 17.9181C20.9728 17.9181 21.0323 17.9067 21.0918 17.9042C21.1754 17.9042 21.2603 17.8954 21.3451 17.8929H21.4844C21.6111 17.8929 21.7478 17.8929 21.8834 17.8929C22.0189 17.8929 22.1278 17.9055 22.2494 17.9143H22.4191C22.5368 17.9143 22.6533 17.9269 22.7699 17.9358L22.8851 17.9471L23.1156 17.9724L23.2511 17.9913L23.455 18.0241L23.5994 18.0519L23.7906 18.0935L23.9363 18.1263C23.997 18.1415 24.0566 18.1591 24.1174 18.1755C24.1781 18.1919 24.2174 18.2008 24.2668 18.2159C24.3162 18.2311 24.3694 18.25 24.4226 18.2664C24.5416 18.3042 24.6594 18.3459 24.7746 18.3926L24.8633 18.4254C24.9367 18.4544 25.0077 18.4834 25.0773 18.5162L25.1571 18.5491L25.3787 18.6538C25.3964 18.6636 25.4146 18.6725 25.4332 18.6803C25.513 18.7207 25.594 18.7623 25.6713 18.8065H25.684C26.6084 19.3157 27.4116 20.0178 28.0387 20.8647C28.6658 21.7117 29.1019 22.6836 29.3174 23.714H29.3237C29.6483 25.2576 29.4585 26.8646 28.7829 28.2909C29.2853 27.7399 29.7016 27.1167 30.0177 26.4422C30.2787 25.8425 30.4592 25.2112 30.5547 24.5645C30.4564 23.2706 30.0581 22.017 29.3911 20.9025C28.7242 19.7879 27.8067 18.8428 26.711 18.1415V18.1415Z" fill="white"/>
<path d="M17.9335 28.4435C16.5708 27.2927 16.1782 25.526 17.0558 24.4963C17.2246 24.2985 17.4323 24.1374 17.6662 24.0231C17.5875 24.0895 17.5139 24.1616 17.4459 24.2389C16.5708 25.2673 16.9634 27.034 18.3248 28.1861C18.383 28.2353 18.4413 28.2795 18.5008 28.3249C19.514 28.0725 20.693 27.5589 22.0646 26.6516C21.7407 25.8853 21.2889 25.1792 20.7285 24.5632C19.6533 23.3884 17.9714 23.1751 16.8874 24.042C13.9214 21.2103 10.9553 18.3782 7.98932 15.5457C7.91448 15.4799 7.82737 15.4294 7.73296 15.3972C7.63855 15.365 7.53869 15.3516 7.43908 15.3578C7.33948 15.364 7.24207 15.3897 7.15243 15.4334C7.06279 15.4771 6.98267 15.538 6.91664 15.6126C6.85062 15.6871 6.79998 15.7739 6.76762 15.868C6.73526 15.9621 6.72181 16.0616 6.72805 16.1608C6.73428 16.2601 6.76007 16.3571 6.80395 16.4465C6.84782 16.5358 6.90893 16.6156 6.98377 16.6814L16.4707 24.5152C15.7324 25.685 16.1376 27.3267 17.4332 28.2542C17.5383 28.3312 17.651 28.4056 17.7663 28.4788L17.9385 28.4498L17.9335 28.4435Z" fill="white"/>
<path d="M14.2516 28.0057C14.7942 29.5216 15.7637 30.8495 17.0441 31.8306C18.3244 32.8116 19.8615 33.4042 21.4711 33.5374C23.0808 33.6705 24.6948 33.3386 26.1201 32.5813C27.5453 31.8241 28.7213 30.6736 29.5072 29.2676C28.4307 30.2977 27.0695 30.9834 25.5988 31.2366C24.128 31.4898 22.6148 31.2989 21.2538 30.6885C21.0613 30.5989 20.8739 30.5017 20.6953 30.402C22.4648 31.0259 24.4049 30.9648 26.1314 30.231C27.8579 29.4972 29.2449 28.1441 30.0176 26.4397C30.1732 26.0757 30.3002 25.7002 30.3976 25.3166C29.8277 24.8522 27.7773 23.6925 23.6145 26.5709C16.4223 31.5466 13.9059 27.0378 14.2516 28.0057Z" fill="white"/>
</g>
<defs>
<clipPath id="clip0_234:39660">
<rect width="31.6662" height="28.963" fill="white" transform="translate(6.729 10.4679)"/>
</clipPath>
</defs>
</svg>
