<svg width="72" height="72" viewBox="0 0 72 72" fill="none" xmlns="http://www.w3.org/2000/svg">
<g clip-path="url(#clip0_234:39291)">
<path d="M36.0027 72.0026C28.8832 72.0026 21.9236 69.8914 16.004 65.936C10.0843 61.9806 5.47049 56.3587 2.74597 49.7811C0.0214556 43.2035 -0.691402 35.9657 0.697545 28.983C2.08649 22.0003 5.51486 15.5863 10.5491 10.552C15.5834 5.51779 21.9974 2.08942 28.9801 0.700475C35.9628 -0.688472 43.2006 0.0243856 49.7781 2.7489C56.3557 5.47342 61.9777 10.0872 65.933 16.0069C69.8884 21.9265 71.9996 28.8862 71.9996 36.0057C71.988 45.5491 68.1918 54.6983 61.4436 61.4465C54.6954 68.1947 45.5461 71.991 36.0027 72.0026ZM36.0027 6.35365C30.1387 6.35427 24.4066 8.09375 19.5312 11.3521C14.6558 14.6105 10.8561 19.2414 8.61267 24.6593C6.36918 30.0772 5.78266 36.0386 6.92728 41.7898C8.0719 47.541 10.8962 52.8237 15.0431 56.9697C19.1901 61.1157 24.4733 63.939 30.2247 65.0824C35.9762 66.2258 41.9375 65.638 47.3549 63.3934C52.7723 61.1487 57.4024 57.3481 60.6598 52.472C63.9171 47.5959 65.6554 41.8634 65.6548 35.9994C65.6457 28.1386 62.5185 20.6024 56.9594 15.0445C51.4004 9.48668 43.8636 6.3611 36.0027 6.35365Z" fill="white"/>
<path d="M17.5135 40.858H39.6938C40.1919 40.858 40.6696 40.6601 41.0218 40.3079C41.374 39.9557 41.5719 39.478 41.5719 38.9799C41.5719 38.4818 41.374 38.0041 41.0218 37.6519C40.6696 37.2997 40.1919 37.1018 39.6938 37.1018H21.6046L39.9755 15.6665L36.6763 27.198C36.5394 27.6774 36.5984 28.1916 36.8406 28.6275C37.0827 29.0633 37.4881 29.3851 37.9675 29.5221C38.447 29.6591 38.9612 29.6 39.397 29.3579C39.8329 29.1157 40.1547 28.7104 40.2917 28.2309L44.5894 13.1874C44.7737 12.5377 44.7307 11.8445 44.4674 11.2227C44.2041 10.6008 43.7364 10.0875 43.1416 9.76761C42.5468 9.44777 41.8607 9.3406 41.1967 9.46385C40.5327 9.58709 39.9307 9.93336 39.4904 10.4453L16.0861 37.7529C15.8508 38.0256 15.6989 38.3602 15.6484 38.7168C15.5979 39.0734 15.6511 39.4371 15.8015 39.7643C15.952 40.0916 16.1933 40.3687 16.4969 40.5626C16.8004 40.7565 17.1533 40.8591 17.5135 40.858Z" fill="white"/>
<path d="M30.4252 32.9828C30.4252 33.4809 30.623 33.9586 30.9752 34.3108C31.3275 34.663 31.8051 34.8609 32.3033 34.8609H50.4019L32.0278 56.2962L35.3239 44.7616C35.4608 44.2822 35.4018 43.768 35.1596 43.3321C34.9175 42.8962 34.5121 42.5744 34.0327 42.4375C33.5532 42.3005 33.039 42.3596 32.6032 42.6017C32.1673 42.8438 31.8455 43.2492 31.7085 43.7286L27.4108 58.7722C27.2229 59.4227 27.2635 60.1179 27.526 60.742C27.7884 61.3661 28.2568 61.8815 28.8531 62.2021C29.4494 62.5228 30.1376 62.6294 30.803 62.5043C31.4684 62.3791 32.0708 62.0297 32.5098 61.5142L55.9109 34.2067C56.1463 33.934 56.2982 33.5994 56.3487 33.2428C56.3991 32.8861 56.346 32.5225 56.1955 32.1952C56.0451 31.868 55.8037 31.5909 55.5002 31.397C55.1967 31.2031 54.8438 31.1005 54.4836 31.1016H32.3064C32.0592 31.1012 31.8144 31.1495 31.586 31.2439C31.3576 31.3383 31.15 31.4769 30.9752 31.6517C30.8005 31.8264 30.6619 32.034 30.5675 32.2624C30.4731 32.4908 30.4247 32.7356 30.4252 32.9828Z" fill="white"/>
</g>
<defs>
<clipPath id="clip0_234:39291">
<rect width="72" height="72" fill="white"/>
</clipPath>
</defs>
</svg>
