<svg width="57" height="40" viewBox="0 0 57 40" fill="none" xmlns="http://www.w3.org/2000/svg">
<circle cx="28" cy="20" r="13" fill="white"/>
<path d="M22.8 28.5714L37.5915 20L22.8 11.4286V28.5714ZM55.746 6.2C56.1165 7.54286 56.373 9.34286 56.544 11.6286C56.7435 13.9143 56.829 15.8857 56.829 17.6L57 20C57 26.2571 56.544 30.8571 55.746 33.8C55.0335 36.3714 53.3805 38.0286 50.8155 38.7429C49.476 39.1143 47.025 39.3714 43.263 39.5429C39.558 39.7429 36.1665 39.8286 33.0315 39.8286L28.5 40C16.5585 40 9.12 39.5429 6.1845 38.7429C3.6195 38.0286 1.9665 36.3714 1.254 33.8C0.8835 32.4571 0.627 30.6571 0.456 28.3714C0.2565 26.0857 0.171 24.1143 0.171 22.4L0 20C0 13.7429 0.456 9.14286 1.254 6.2C1.9665 3.62857 3.6195 1.97143 6.1845 1.25714C7.524 0.885714 9.975 0.628571 13.737 0.457142C17.442 0.257142 20.8335 0.171428 23.9685 0.171428L28.5 0C40.4415 0 47.88 0.457143 50.8155 1.25714C53.3805 1.97143 55.0335 3.62857 55.746 6.2Z" fill="#FF0000"/>
</svg>
